<?xml version="1.0" encoding="utf-8"?>
<svg xmlns="http://www.w3.org/2000/svg" viewBox="0 0 640 512">
  <path d="M 144 480 C 64.5 480 0 415.5 0 336 C 0 273.2 40.2 219.8 96.2 200.1 C 96.1 197.4 96 194.7 96 192 C 96 103.6 167.6 32 256 32 C 315.3 32 367 64.2 394.7 112.2 C 409.9 102 428.3 96 448 96 C 501 96 544 139 544 192 C 544 204.2 541.7 215.8 537.6 226.6 C 596 238.4 640 290.1 640 352 C 640 422.7 582.7 480 512 480 C 511.963 480.037 143.925 480.075 144 480 Z M 223 416 C 213.6 425.4 213.6 440.6 223 449.9 C 232.4 459.2 247.6 459.3 256.9 449.9 L 295.9 410.9 L 295.8 480.042 C 344.376 480.062 295.787 480.056 344.354 480.041 L 344 410.9 L 383 449.9 C 392.4 459.3 407.6 459.3 416.9 449.9 C 426.2 440.5 426.3 425.3 416.9 416 L 336.9 336 C 327.5 326.6 312.3 326.6 303 336 L 223 416 Z" style=""/>
</svg>