<?xml version="1.0" encoding="utf-8"?>
<svg xmlns="http://www.w3.org/2000/svg" viewBox="0 0 640 512">
  <path d="M 144 480 C 64.5 480 0 415.5 0 336 C 0 273.2 40.2 219.8 96.2 200.1 C 96.1 197.4 96 194.7 96 192 C 96 103.6 167.6 32.206 256 32 C 315.998 31.86 367.04 64.192 394.7 112.2 C 409.9 102 428.3 96 448 96 C 501 96 544 139 544 192 C 544 204.2 541.7 215.8 537.6 226.6 C 596 238.4 640 290.1 640 352 C 640 422.7 582.7 480 512 480 L 144 480 Z M 342.174 57.18 C 338.618 53.018 302.947 37.047 295.854 36.898 L 296 115 C 296 128.3 306.7 139 320 139 C 333.3 139 344 128.3 344 115 L 342.174 57.18 Z" style=""/>
</svg>