<?xml version="1.0" encoding="utf-8"?>
<svg xmlns="http://www.w3.org/2000/svg" viewBox="0 0 640 512">
  <path d="M 144 480 C 64.5 480 0 415.5 0 336 C 0 273.2 40.2 219.8 96.2 200.1 C 96.1 197.4 96 194.7 96 192 C 96 103.6 167.6 32 256 32 C 315.3 32 367 64.2 394.7 112.2 C 409.9 102 428.3 96 448 96 C 501 96 544 139 544 192 C 544 204.2 541.7 215.8 537.6 226.6 C 596 238.4 640 290.1 640 352 C 640 422.7 582.7 480 512 480 L 144 480 Z M 223 146 C 213.6 155.4 213.6 170.6 223 179.9 C 232.4 189.2 247.6 189.3 256.9 179.9 L 295.9 140.9 L 296 275 C 296 288.3 306.7 299 320 299 C 333.3 299 344 288.3 344 275 L 344 140.9 L 383 179.9 C 392.4 189.3 407.6 189.3 416.9 179.9 C 426.2 170.5 426.3 155.3 416.9 146 L 336.9 66 C 327.5 56.6 312.3 56.6 303 66 L 223 146 Z" style=""/>
</svg>